PathFileType	4	(X/Y/Z)	C:/Users/Rosti/Documents/GitHub/TechForParalysis/Code/Model/04122019 - Marker Volunteer01/Rosti Data/New Session 103.trc	
DataRate	CameraRate	NumFrames	NumMarkers	Units	OrigDataRate	OrigDataStartFrame	OrigNumFrames	
100.00	100.00	11	14	mm	100.00	388	620	
Frame#	Time	C7			PX			T8			IJ			SC			AC			AI			TS			AA			GH			LE			ME			US			RS			
		X1	Y1	Z1	X2	Y2	Z2	X3	Y3	Z3	X4	Y4	Z4	X5	Y5	Z5	X6	Y6	Z6	X7	Y7	Z7	X8	Y8	Z8	X9	Y9	Z9	X10	Y10	Z10	X11	Y11	Z11	X12	Y12	Z12	X13	Y13	Z13	X14	Y14	Z14	

388	3.87	11.4677	1534.11	701.996	-18.1134	1292.12	468.151	6.18893	1319.11	767.385	-15.5138	1434.66	537.161	9.57558	1442.19	541.491	156.3	1473.35	607.687	93.3081	1452.67	737.13	90.695	1336.33	767.3	209.426	1426.26	672.56	218.174	1442.02	632.07	295.665	1208.26	474.379	211.936	1167.07	451.78	266.854	1298.58	208.967	313.539	1344.57	249.423
389	3.88	11.4079	1534.11	702.169	-18.2034	1292.11	468.31	6.12295	1319.12	767.649	-15.6871	1434.64	537.302	9.57894	1442.19	541.637	156.241	1473.37	607.72	93.2485	1452.65	737.175	90.6317	1336.36	767.437	209.337	1426.22	672.563	218.11	1441.98	632.071	295.511	1208.04	474.384	212.095	1166.75	452.108	269.746	1289.33	205.104	316.638	1336.36	244.236
390	3.89	11.3649	1534.11	702.312	-18.3209	1292.1	468.431	6.07787	1319.14	767.893	-15.8407	1434.62	537.42	9.55119	1442.21	541.736	156.208	1473.41	607.683	93.2174	1452.65	737.184	90.5866	1336.39	767.549	209.284	1426.19	672.506	218.061	1441.94	632.011	295.497	1207.76	474.386	212.209	1166.36	452.54	272.338	1280.04	201.686	319.648	1327.9	239.409
391	3.9	11.3421	1534.12	702.414	-18.4547	1292.09	468.522	6.05478	1319.16	768.114	-15.9718	1434.6	537.518	9.47601	1442.24	541.807	156.178	1473.42	607.59	93.2221	1452.67	737.166	90.5681	1336.43	767.63	209.275	1426.21	672.4	218.018	1441.92	631.893	295.577	1207.4	474.357	212.237	1165.93	453.067	274.755	1270.68	198.677	322.538	1319.24	234.946
392	3.91	11.3362	1534.13	702.479	-18.5841	1292.07	468.603	6.0534	1319.18	768.308	-16.08	1434.59	537.595	9.37098	1442.25	541.875	156.129	1473.41	607.469	93.2627	1452.73	737.133	90.5811	1336.48	767.681	209.308	1426.26	672.263	217.97	1441.94	631.734	295.637	1206.93	474.298	212.141	1165.46	453.643	277.174	1261.15	196.023	325.311	1310.43	230.87
393	3.92	11.3391	1534.15	702.521	-18.6923	1292.05	468.691	6.07217	1319.21	768.473	-16.1668	1434.58	537.655	9.26512	1442.24	541.949	156.056	1473.4	607.35	93.3301	1452.81	737.094	90.6253	1336.53	767.706	209.369	1426.35	672.115	217.896	1441.98	631.557	295.572	1206.32	474.239	211.898	1164.98	454.201	279.734	1251.43	193.697	327.987	1301.56	227.211
394	3.93	11.3419	1534.17	702.558	-18.7744	1292.03	468.789	6.10848	1319.25	768.608	-16.2361	1434.57	537.7	9.17871	1442.23	542.026	155.966	1473.41	607.26	93.4079	1452.89	737.054	90.6946	1336.59	767.712	209.435	1426.44	671.97	217.784	1442.02	631.377	295.359	1205.6	474.214	211.511	1164.5	454.679	282.456	1241.54	191.72	330.588	1292.64	223.968
395	3.94	11.3398	1534.19	702.6	-18.8419	1292.01	468.886	6.15896	1319.28	768.713	-16.2933	1434.57	537.732	9.11916	1442.22	542.088	155.864	1473.43	607.199	93.4756	1452.97	737.013	90.7793	1336.64	767.7	209.48	1426.5	671.83	217.653	1442.04	631.212	294.996	1204.81	474.235	211.002	1164.03	455.053	285.21	1231.56	190.128	333.127	1283.65	221.111
396	3.95	11.336	1534.22	702.641	-18.9154	1291.99	468.964	6.21997	1319.32	768.788	-16.345	1434.57	537.752	9.07522	1442.24	542.122	155.759	1473.41	607.146	93.5202	1453.03	736.964	90.8691	1336.7	767.667	209.487	1426.52	671.688	217.542	1442.02	631.062	294.474	1204	474.293	210.418	1163.55	455.352	287.796	1221.6	188.941	335.602	1274.54	218.614
397	3.96	11.3391	1534.23	702.667	-19.0074	1291.98	469.017	6.28805	1319.36	768.836	-16.3966	1434.56	537.763	9.02003	1442.27	542.125	155.676	1473.35	607.06	93.5424	1453.08	736.895	90.9556	1336.74	767.609	209.456	1426.48	671.528	217.473	1441.94	630.9	293.883	1203.21	474.39	209.808	1163.05	455.649	290.061	1211.73	188.172	337.991	1265.33	216.473
398	3.97	11.3593	1534.25	702.664	-19.1223	1291.96	469.049	6.36029	1319.41	768.857	-16.4517	1434.55	537.764	8.93398	1442.3	542.101	155.632	1473.28	606.903	93.557	1453.1	736.798	91.034	1336.78	767.521	209.41	1426.4	671.331	217.45	1441.81	630.688	293.378	1202.47	474.53	209.209	1162.48	456.019	291.997	1201.96	187.816	340.268	1256.03	214.702
